<svg xmlns="http://www.w3.org/2000/svg" viewBox="0 0 128 128" role="img" aria-label="Moonlit ranger avatar">
  <defs>
    <linearGradient id="bg" x1="18" y1="10" x2="110" y2="118" gradientUnits="userSpaceOnUse">
      <stop stop-color="#fff4d7"/>
      <stop offset=".52" stop-color="#d9c38f"/>
      <stop offset="1" stop-color="#8fa083"/>
    </linearGradient>
    <linearGradient id="gold" x1="39" y1="20" x2="89" y2="111" gradientUnits="userSpaceOnUse">
      <stop stop-color="#fff0b8"/>
      <stop offset=".48" stop-color="#bd8b3f"/>
      <stop offset="1" stop-color="#6e5429"/>
    </linearGradient>
    <linearGradient id="leaf" x1="41" y1="31" x2="91" y2="101" gradientUnits="userSpaceOnUse">
      <stop stop-color="#d7efc2"/>
      <stop offset=".5" stop-color="#6f9f6a"/>
      <stop offset="1" stop-color="#355f49"/>
    </linearGradient>
    <filter id="softShadow" x="-20%" y="-20%" width="140%" height="140%">
      <feDropShadow dx="0" dy="8" stdDeviation="8" flood-color="#5d4424" flood-opacity=".24"/>
    </filter>
  </defs>
  <rect width="128" height="128" rx="26" fill="url(#bg)"/>
  <path d="M18 92c22-12 24-38 46-48 18-8 33-2 47-17-3 25-17 44-38 56-18 10-37 11-55 9Z" fill="#fff8e6" opacity=".42"/>
  <circle cx="64" cy="64" r="51" fill="none" stroke="url(#gold)" stroke-width="5"/>
  <circle cx="64" cy="64" r="43" fill="#fff7df" opacity=".36"/>
  <g filter="url(#softShadow)">
    <path d="M64 21c14 9 27 22 32 39-10 5-18 17-22 36H54c-4-19-12-31-22-36 5-17 18-30 32-39Z" fill="url(#leaf)" stroke="#f1d99c" stroke-width="4" stroke-linejoin="round"/>
    <path d="M45 63c2-20 9-32 19-40 10 8 17 20 19 40-5-6-11-9-19-9s-14 3-19 9Z" fill="#eef1c8" opacity=".86"/>
    <path d="M44 91c4-18 10-29 20-34 10 5 16 16 20 34-6 8-13 12-20 12s-14-4-20-12Z" fill="#3f564d" stroke="#d4a75f" stroke-width="4" stroke-linejoin="round"/>
    <path d="M52 70h24" stroke="#f3dc9d" stroke-width="5" stroke-linecap="round"/>
    <path d="M64 32v70" stroke="#ead18f" stroke-width="3" stroke-linecap="round" opacity=".85"/>
  </g>
  <path d="M91 28c-7 6-9 13-9 21 8-2 15-8 21-18-5 1-9 0-12-3Z" fill="#f9e7ad" stroke="#9a7238" stroke-width="3" stroke-linejoin="round"/>
</svg>
